<mxfile host="app.diagrams.net" modified="2021-04-09T04:57:34.716Z" agent="5.0 (Windows NT 10.0; Win64; x64) AppleWebKit/537.36 (KHTML, like Gecko) Chrome/89.0.4389.114 Safari/537.36" etag="Tuw5lnvxcI4fZ86kYwqQ" version="14.5.8" type="github">
  <diagram id="3QVZiejLph2hrb_r6e5q" name="第 1 页">
    <mxGraphModel dx="1278" dy="492" grid="1" gridSize="10" guides="1" tooltips="1" connect="1" arrows="1" fold="1" page="1" pageScale="1" pageWidth="827" pageHeight="1169" math="0" shadow="0">
      <root>
        <mxCell id="0" />
        <mxCell id="1" parent="0" />
        <mxCell id="L5MOgi-Tj2PPcthu5MSW-10" style="rounded=0;orthogonalLoop=1;jettySize=auto;html=1;entryX=0.018;entryY=0.623;entryDx=0;entryDy=0;entryPerimeter=0;" edge="1" parent="1" source="L5MOgi-Tj2PPcthu5MSW-1" target="L5MOgi-Tj2PPcthu5MSW-7">
          <mxGeometry relative="1" as="geometry" />
        </mxCell>
        <mxCell id="L5MOgi-Tj2PPcthu5MSW-11" style="edgeStyle=none;rounded=0;orthogonalLoop=1;jettySize=auto;html=1;entryX=0;entryY=0.5;entryDx=0;entryDy=0;" edge="1" parent="1" source="L5MOgi-Tj2PPcthu5MSW-1" target="L5MOgi-Tj2PPcthu5MSW-6">
          <mxGeometry relative="1" as="geometry" />
        </mxCell>
        <mxCell id="L5MOgi-Tj2PPcthu5MSW-12" style="edgeStyle=none;rounded=0;orthogonalLoop=1;jettySize=auto;html=1;entryX=0;entryY=0.5;entryDx=0;entryDy=0;" edge="1" parent="1" source="L5MOgi-Tj2PPcthu5MSW-1" target="L5MOgi-Tj2PPcthu5MSW-8">
          <mxGeometry relative="1" as="geometry" />
        </mxCell>
        <mxCell id="L5MOgi-Tj2PPcthu5MSW-13" style="edgeStyle=none;rounded=0;orthogonalLoop=1;jettySize=auto;html=1;entryX=0;entryY=0.5;entryDx=0;entryDy=0;" edge="1" parent="1" source="L5MOgi-Tj2PPcthu5MSW-1" target="L5MOgi-Tj2PPcthu5MSW-9">
          <mxGeometry relative="1" as="geometry" />
        </mxCell>
        <mxCell id="L5MOgi-Tj2PPcthu5MSW-1" value="内推信息管理" style="ellipse;whiteSpace=wrap;html=1;" vertex="1" parent="1">
          <mxGeometry x="330" y="460" width="110" height="60" as="geometry" />
        </mxCell>
        <mxCell id="L5MOgi-Tj2PPcthu5MSW-5" style="edgeStyle=orthogonalEdgeStyle;rounded=0;orthogonalLoop=1;jettySize=auto;html=1;entryX=0;entryY=0.5;entryDx=0;entryDy=0;" edge="1" parent="1" source="L5MOgi-Tj2PPcthu5MSW-3" target="L5MOgi-Tj2PPcthu5MSW-1">
          <mxGeometry relative="1" as="geometry" />
        </mxCell>
        <mxCell id="L5MOgi-Tj2PPcthu5MSW-3" value="内推发布者" style="shape=umlActor;verticalLabelPosition=bottom;verticalAlign=top;html=1;" vertex="1" parent="1">
          <mxGeometry x="230" y="450" width="50" height="80" as="geometry" />
        </mxCell>
        <mxCell id="L5MOgi-Tj2PPcthu5MSW-6" value="修改内推信息" style="ellipse;whiteSpace=wrap;html=1;" vertex="1" parent="1">
          <mxGeometry x="520" y="515" width="110" height="60" as="geometry" />
        </mxCell>
        <mxCell id="L5MOgi-Tj2PPcthu5MSW-7" value="发布内推信息" style="ellipse;whiteSpace=wrap;html=1;" vertex="1" parent="1">
          <mxGeometry x="520" y="350" width="110" height="60" as="geometry" />
        </mxCell>
        <mxCell id="L5MOgi-Tj2PPcthu5MSW-8" value="删除内推信息" style="ellipse;whiteSpace=wrap;html=1;" vertex="1" parent="1">
          <mxGeometry x="520" y="430" width="110" height="60" as="geometry" />
        </mxCell>
        <mxCell id="L5MOgi-Tj2PPcthu5MSW-9" value="查找我的内推" style="ellipse;whiteSpace=wrap;html=1;" vertex="1" parent="1">
          <mxGeometry x="530" y="600" width="110" height="60" as="geometry" />
        </mxCell>
        <mxCell id="L5MOgi-Tj2PPcthu5MSW-14" value="&lt;font style=&quot;font-size: 24px&quot;&gt;内推信息管理&lt;/font&gt;" style="text;html=1;strokeColor=none;fillColor=none;align=center;verticalAlign=middle;whiteSpace=wrap;rounded=0;" vertex="1" parent="1">
          <mxGeometry x="290" y="290" width="190" height="40" as="geometry" />
        </mxCell>
      </root>
    </mxGraphModel>
  </diagram>
</mxfile>
